<?xml version="1.0" encoding="UTF-8" standalone="no"?>
<!-- By Sam Herbert (@sherb), for everyone. More @ http://goo.gl/7AJzbL -->

<!-- Todo: add easing -->

<svg
   width="80"
   height="80"
   viewBox="0 0 57 57"
   stroke="#d38bfc"
   version="1.1"
   id="svg4"
   sodipodi:docname="pre.svg"
   inkscape:version="1.3 (0e150ed6c4, 2023-07-21)"
   xmlns:inkscape="http://www.inkscape.org/namespaces/inkscape"
   xmlns:sodipodi="http://sodipodi.sourceforge.net/DTD/sodipodi-0.dtd"
   xmlns="http://www.w3.org/2000/svg"
   xmlns:svg="http://www.w3.org/2000/svg">
  <defs
     id="defs4" />
  <sodipodi:namedview
     id="namedview4"
     pagecolor="#ffffff"
     bordercolor="#000000"
     borderopacity="0.25"
     inkscape:showpageshadow="2"
     inkscape:pageopacity="0.0"
     inkscape:pagecheckerboard="0"
     inkscape:deskcolor="#d1d1d1"
     inkscape:zoom="10.0375"
     inkscape:cx="40.049813"
     inkscape:cy="40"
     inkscape:window-width="1920"
     inkscape:window-height="1007"
     inkscape:window-x="0"
     inkscape:window-y="0"
     inkscape:window-maximized="1"
     inkscape:current-layer="svg4" />
  <g
     fill="none"
     fill-rule="evenodd"
     id="g4">
    <g
       transform="translate(1 1)"
       stroke-width="2"
       id="g3">
      <circle
         cx="5"
         cy="50"
         r="5"
         id="circle1">
        <animate
           attributeName="cy"
           begin="0s"
           dur="2.2s"
           values="50;5;50;50"
           calcMode="linear"
           repeatCount="indefinite" />
        <animate
           attributeName="cx"
           begin="0s"
           dur="2.2s"
           values="5;27;49;5"
           calcMode="linear"
           repeatCount="indefinite" />
      </circle>
      <circle
         cx="27"
         cy="5"
         r="5"
         id="circle2">
        <animate
           attributeName="cy"
           begin="0s"
           dur="2.2s"
           from="5"
           to="5"
           values="5;50;50;5"
           calcMode="linear"
           repeatCount="indefinite" />
        <animate
           attributeName="cx"
           begin="0s"
           dur="2.2s"
           from="27"
           to="27"
           values="27;49;5;27"
           calcMode="linear"
           repeatCount="indefinite" />
      </circle>
      <circle
         cx="49"
         cy="50"
         r="5"
         id="circle3">
        <animate
           attributeName="cy"
           begin="0s"
           dur="2.2s"
           values="50;50;5;50"
           calcMode="linear"
           repeatCount="indefinite" />
        <animate
           attributeName="cx"
           from="49"
           to="49"
           begin="0s"
           dur="2.2s"
           values="49;5;27;49"
           calcMode="linear"
           repeatCount="indefinite" />
      </circle>
    </g>
  </g>
  <path
     style="fill:#3636d5;fill-opacity:1;stroke-width:0.0709838"
     d="m 5.4302615,56.849103 c -2.091454,-0.178742 -3.915489,-1.471775 -4.83044399,-3.424237 -1.50395,-3.209347 0.17414,-7.055974 3.56038899,-8.161358 2.76957,-0.904079 5.78071,0.33679 7.1227555,2.935234 0.503911,0.975665 0.638896,1.5543 0.637357,2.732142 -0.0016,1.183618 -0.095,1.595177 -0.596374,2.626401 -1.087389,2.236527 -3.3638785,3.508022 -5.8936835,3.291818 z m 1.555038,-2.016933 c 0.692182,-0.163159 1.254697,-0.495216 1.855029,-1.095037 1.5791025,-1.57776 1.6044915,-3.947525 0.05971,-5.573772 -0.802744,-0.845081 -1.72764,-1.243063 -2.888834,-1.243063 -1.091818,0 -1.958604,0.338797 -2.742234,1.071845 -0.528564,0.494445 -0.877864,1.028535 -1.109543,1.696524 -0.228044,0.657507 -0.228044,1.826926 0,2.484433 0.452426,1.304457 1.581528,2.355557 2.864243,2.666376 0.512788,0.124255 1.417791,0.120883 1.961622,-0.0073 z"
     id="path5" />
  <path
     style="fill:#3636d5;fill-opacity:1;stroke-width:0.0996264"
     d=""
     id="path20"
     transform="scale(0.7125)" />
  <path
     style="fill:#3636d5;fill-opacity:1;stroke-width:0.0709838"
     d="m 49.440224,56.849662 c -1.865487,-0.161388 -3.548112,-1.215848 -4.530479,-2.839141 -1.37233,-2.267679 -1.094067,-5.100078 0.698949,-7.114524 0.68569,-0.770369 1.859222,-1.469084 2.948064,-1.755262 1.16734,-0.30681 2.757943,-0.163231 3.892947,0.351405 2.248265,1.019412 3.670189,3.388425 3.497134,5.826441 -0.238644,3.362031 -3.133536,5.822894 -6.506615,5.531081 z m 1.433929,-1.98606 c 0.690968,-0.143036 1.394252,-0.535678 1.945664,-1.086262 0.810589,-0.809371 1.18994,-1.716819 1.18994,-2.846456 0,-1.132518 -0.380561,-2.041279 -1.18994,-2.84151 -0.821469,-0.812187 -1.683809,-1.169076 -2.8248,-1.169076 -3.790742,0 -5.459351,4.751933 -2.509206,7.145817 0.922416,0.748491 2.187105,1.046151 3.388342,0.797487 z"
     id="path22" />
  <path
     style="fill:#3636d5;fill-opacity:1;stroke-width:0.0709838"
     d="m 27.305518,12.060636 c -2.391809,-0.283438 -4.389152,-2.004349 -5.064684,-4.3637345 -0.231949,-0.810112 -0.231949,-2.303492 0,-3.113604 0.751402,-2.624371 3.060192,-4.37886397 5.76228,-4.37886397 1.501236,0 2.746307,0.46119 3.929582,1.45556797 0.785758,0.66032 1.581767,1.966386 1.865237,3.060422 0.177842,0.686367 0.178028,2.151732 3.61e-4,2.839352 -0.190465,0.737153 -0.75641,1.84032 -1.241334,2.419672 -1.253676,1.4978005 -3.307122,2.3115965 -5.251442,2.0811885 z m 1.716615,-2.022403 c 2.02572,-0.5222905 3.337728,-2.6058315 2.924642,-4.6444935 -0.177195,-0.874492 -0.473629,-1.429735 -1.102375,-2.064829 -0.824031,-0.832351 -1.707762,-1.199396 -2.887772,-1.199396 -1.103503,0 -1.976982,0.37397 -2.799641,1.198635 -1.248881,1.251927 -1.537072,2.982164 -0.766847,4.603987 0.281673,0.593104 1.123724,1.466764 1.696411,1.760091 0.875122,0.4482335 2.017055,0.5828295 2.935582,0.3460055 z"
     id="path23" />
  <path
     style="fill:#3636d5;fill-opacity:1;stroke-width:0.0709838"
     d="M 27.234535,11.918668 C 24.842725,11.63523 22.845382,9.914319 22.16985,7.554934 c -0.231949,-0.810112 -0.231949,-2.303492 0,-3.113604 0.751402,-2.624371 3.060193,-4.37886398 5.76228,-4.37886398 1.501237,0 2.746307,0.46119 3.929582,1.45556798 0.785758,0.66032 1.581767,1.966386 1.865237,3.060422 0.177842,0.686367 0.178028,2.151732 3.61e-4,2.839352 -0.190465,0.737153 -0.756409,1.84032 -1.241333,2.419672 -1.253677,1.4978 -3.307123,2.311596 -5.251442,2.081188 z M 28.951149,9.896265 C 30.976869,9.373975 32.288877,7.290434 31.875791,5.251772 31.698596,4.37728 31.402162,3.822037 30.773416,3.186943 29.949385,2.354592 29.065654,1.987547 27.885644,1.987547 c -1.103503,0 -1.976982,0.37397 -2.79964,1.198635 -1.248882,1.251927 -1.537072,2.982164 -0.766848,4.603987 0.281673,0.593104 1.123724,1.466764 1.696411,1.760091 0.875122,0.448233 2.017055,0.582829 2.935582,0.346005 z"
     id="path1" />
  <path
     style="fill:#3636d5;fill-opacity:1;stroke-width:0.0996264"
     d="M 7.6214197,79.887842 C 4.6860454,79.636976 2.1259962,77.822192 0.84184973,75.081895 -1.2689577,70.577549 1.0862561,65.178773 5.8388861,63.627358 c 3.887116,-1.268883 8.1132779,0.472687 9.9968489,4.119626 0.707244,1.369355 0.896696,2.181474 0.894536,3.834585 -0.0022,1.661219 -0.133331,2.238845 -0.837016,3.686177 -1.52616,3.138986 -4.721232,4.92354 -8.2718353,4.620096 z m 2.1825088,-2.830784 c 0.9714835,-0.228995 1.7609785,-0.69504 2.6035495,-1.536894 2.216284,-2.2144 2.251918,-5.540386 0.08381,-7.822837 -1.126659,-1.186079 -2.424758,-1.74465 -4.0545043,-1.74465 -1.532376,0 -2.7489174,0.475504 -3.8487494,1.504343 -0.7418441,0.693959 -1.2320898,1.443559 -1.5572538,2.381087 -0.3200618,0.922817 -0.3200618,2.564107 0,3.486924 0.6349839,1.830816 2.2196886,3.306044 4.0199913,3.742281 0.7197025,0.174393 1.989882,0.169661 2.7531537,-0.01025 z"
     id="path2"
     transform="scale(0.7125)" />
  <path
     style="fill:#3636d5;fill-opacity:1;stroke-width:0.0996264"
     d="m 69.389788,79.888626 c -2.618227,-0.226509 -4.979806,-1.706453 -6.358567,-3.984759 -1.926077,-3.182707 -1.535533,-7.158004 0.980981,-9.985297 0.962371,-1.081219 2.609434,-2.061872 4.137634,-2.463526 1.638371,-0.43061 3.870796,-0.229096 5.463784,0.4932 3.15546,1.430754 5.151143,4.755685 4.908259,8.177462 -0.334939,4.71864 -4.397946,8.172482 -9.132091,7.76292 z m 2.012531,-2.787452 c 0.96978,-0.200752 1.956845,-0.751829 2.730757,-1.524579 1.137669,-1.135959 1.670092,-2.40957 1.670092,-3.995026 0,-1.589499 -0.534122,-2.864952 -1.670092,-3.988084 -1.152939,-1.139911 -2.363241,-1.640808 -3.964632,-1.640808 -5.320339,0 -7.662246,6.669379 -3.521692,10.029217 1.294619,1.050513 3.069621,1.468282 4.755567,1.11928 z"
     id="path3"
     transform="scale(0.7125)" />
  <path
     style="fill:#3636d5;stroke-width:0.0996264"
     d="m 38.323534,16.727955 c -3.356926,-0.397807 -6.160214,-2.813121 -7.108329,-6.124539 -0.325543,-1.1369995 -0.325543,-3.2329708 0,-4.3699706 1.054599,-3.6833277 4.295007,-6.14577417 8.08741,-6.14577417 2.106999,0 3.854466,0.64728432 5.515203,2.04290247 1.102818,0.9267647 2.220024,2.7598403 2.617877,4.2953292 0.249603,0.9633221 0.249864,3.0199757 5.07e-4,3.9850561 -0.26732,1.0346 -1.061628,2.582905 -1.742223,3.396031 -1.759546,2.102175 -4.641575,3.244345 -7.370445,2.920965 z m 2.409284,-2.83846 c 2.843115,-0.733039 4.68453,-3.657307 4.10476,-6.5185871 C 44.588884,6.143551 44.172836,5.3642626 43.290385,4.4729026 42.13385,3.304691 40.893526,2.7895392 39.237372,2.7895392 c -1.548776,0 -2.774712,0.5248711 -3.92932,1.6822957 -1.752816,1.7570907 -2.157294,4.1854926 -1.076277,6.4617361 0.39533,0.832426 1.577156,2.058616 2.380927,2.470303 1.228242,0.629099 2.830955,0.818005 4.120116,0.485621 z"
     id="path4"
     transform="scale(0.7125)" />
</svg>
